#!OML:ASF F:\VICON\USERDATA\INSTALL\rory3\rory3.ASF
:FULLY-SPECIFIED
:DEGREES
241
root -0.44146 17.9662 -17.4317 3.81236 3.19675 2.83636
lowerback 6.04282 -0.340808 -7.46385
upperback -0.491064 -0.852499 3.88042
thorax -3.75053 -0.231227 8.40787
lowerneck -16.408 -5.00229 -13.8502
upperneck 26.1762 -4.84261 6.07182
head 11.8237 -2.80912 3.87114
rclavicle -6.85807e-015 9.54166e-015
rhumerus -41.0949 -27.8764 -62.2788
rradius 22.5965
rwrist -5.85409
rhand -12.0059 17.5726
rfingers 7.12502
rthumb 14.0513 -11.9324
lclavicle -6.85807e-015 9.54166e-015
lhumerus -35.324 6.22206 80.7915
lradius 31.5839
lwrist -9.39272
lhand 0.481976 32.1382
lfingers 7.12502
lthumb 26.0519 60.3718
rfemur -30.8688 1.24727 16.1253
rtibia 25.8395
rfoot 1.1893 -8.52705
rtoes 19.9102
lfemur 13.9915 -7.5757 -25.8614
ltibia 21.2681
lfoot -3.87591 -2.4928
ltoes -22.1545
242
root -0.457904 17.9932 -17.242 3.68177 2.91449 2.45689
lowerback 6.11264 -0.245319 -7.14017
upperback -0.484733 -0.700663 3.9908
thorax -3.8153 -0.157878 8.32709
lowerneck -16.6416 -4.94537 -13.7673
upperneck 26.4092 -4.75047 6.05353
head 11.9469 -2.76432 3.86824
rclavicle 1.09332e-014 1.27222e-014
rhumerus -41.3528 -28.4046 -61.7236
rradius 22.197
rwrist -5.3772
rhand -11.8412 17.7232
rfingers 7.12502
rthumb 14.21 -11.7707
lclavicle 1.09332e-014 1.27222e-014
lhumerus -35.4901 6.94201 80.6358
lradius 30.9178
lwrist -9.57106
lhand 0.525811 32.3283
lfingers 7.12502
lthumb 26.0939 60.5557
rfemur -30.3503 1.39168 16.7328
rtibia 26.3253
rfoot 1.01994 -7.87927
rtoes 21.6978
lfemur 13.4402 -7.4471 -25.4645
ltibia 23.0883
lfoot -1.79005 -2.76386
ltoes -21.9221
243
root -0.476154 18.0153 -17.0577 3.62603 2.58192 1.93728
lowerback 6.10283 -0.167762 -6.72449
upperback -0.510851 -0.559008 4.15382
thorax -3.86638 -0.0906561 8.24893
lowerneck -16.7231 -4.86968 -13.6059
upperneck 26.542 -4.63673 5.90196
head 11.9928 -2.71829 3.80344
rclavicle -8.94531e-016 1.90833e-014
rhumerus -41.6045 -28.5559 -61.4037
rradius 22.0508
rwrist -5.02439
rhand -11.5047 17.7939
rfingers 7.12502
rthumb 14.5342 -11.677
lclavicle -8.94531e-016 1.90833e-014
lhumerus -35.644 7.93619 80.3542
lradius 30.1045
lwrist -9.77254
lhand 0.555799 32.2936
lfingers 7.12502
lthumb 26.1226 60.5168
rfemur -29.9289 1.78698 17.4373
rtibia 26.7631
rfoot 0.71469 -7.20193
rtoes 22.8892
lfemur 12.7038 -7.16009 -24.8526
ltibia 24.9813
lfoot 0.492459 -3.06139
ltoes -21.713
244
root -0.49153 18.0388 -16.8683 3.49462 2.40537 1.46007
lowerback 6.11944 -0.125377 -6.32028
upperback -0.473159 -0.467097 4.30088
thorax -3.85474 -0.0534355 8.16363
lowerneck -16.6875 -4.87286 -13.4077
upperneck 26.494 -4.64276 5.68981
head 11.9564 -2.72665 3.68677
rclavicle 1.18277e-014 7.95139e-015
rhumerus -41.7341 -28.5008 -61.3564
rradius 22.1777
rwrist -5.09441
rhand -11.2816 17.7251
rfingers 7.12502
rthumb 14.7492 -11.7301
lclavicle 1.18277e-014 7.95139e-015
lhumerus -35.7198 9.13513 79.984
lradius 29.2596
lwrist -10.4104
lhand 0.583086 31.9899
lfingers 7.12502
lthumb 26.1487 60.2092
rfemur -29.2822 1.8769 18.1397
rtibia 27.0891
rfoot 0.401035 -6.53307
rtoes 23.8207
lfemur 11.9166 -6.90322 -24.2591
ltibia 26.9834
lfoot 3.14432 -3.29978
ltoes -19.6447
245
root -0.505098 18.068 -16.6814 3.36589 2.40889 1.24715
lowerback 6.29575 -0.110561 -6.11858
upperback -0.551973 -0.43824 4.35145
thorax -4.04333 -0.0318687 8.1032
lowerneck -16.5913 -4.93293 -13.3541
upperneck 26.6218 -4.75551 5.66074
head 11.9977 -2.78011 3.65221
rclavicle 8.24956e-015 0
rhumerus -41.9911 -28.2778 -61.347
rradius 22.3766
rwrist -5.44012
rhand -11.2322 17.2742
rfingers 7.12502
rthumb 14.7968 -12.1775
lclavicle 8.24956e-015 0
lhumerus -36.1658 9.80807 79.7432
lradius 28.9074
lwrist -10.7799
lhand 0.725783 32.255
lfingers 7.12502
lthumb 26.2854 60.454
rfemur -28.5335 1.62553 18.5744
rtibia 27.3241
rfoot 0.135846 -5.93421
rtoes 24.4042
lfemur 10.9397 -6.75833 -23.9167
ltibia 29.0763
lfoot 5.98913 -3.49292
ltoes -16.2268
246
root -0.52398 18.0982 -16.4982 3.33063 2.40797 0.996892
lowerback 6.40625 -0.130424 -5.94255
upperback -0.736482 -0.452471 4.42602
thorax -4.2979 -0.0250179 8.08877
lowerneck -16.3586 -4.89904 -13.3749
upperneck 26.7647 -4.75642 5.71314
head 12.0085 -2.78346 3.6813
rclavicle 1.85864e-014 -2.06736e-014
rhumerus -42.3205 -28.3943 -60.9533
rradius 22.1429
rwrist -5.09654
rhand -11.0866 17.2565
rfingers 7.12502
rthumb 14.9371 -12.1849
lclavicle 1.85864e-014 -2.06736e-014
lhumerus -36.9051 10.1341 79.5647
lradius 28.7463
lwrist -10.7328
lhand 1.00641 32.7142
lfingers 7.12502
lthumb 26.554 60.8728
rfemur -27.926 1.62591 19.0208
rtibia 27.5186
rfoot -0.013997 -5.54283
rtoes 23.6034
lfemur 9.75908 -6.49136 -23.4238
ltibia 31.2659
lfoot 8.58207 -3.89311
ltoes -12.8155
247
root -0.542553 18.1235 -16.3155 3.34871 2.51455 0.722621
lowerback 6.32015 -0.178132 -5.73198
upperback -0.816413 -0.492859 4.49217
thorax -4.32645 -0.0457032 8.04106
lowerneck -16.1246 -4.8661 -13.4271
upperneck 26.6997 -4.78298 5.8987
head 11.9437 -2.77969 3.75838
rclavicle -8.94531e-016 -3.81667e-014
rhumerus -42.5722 -28.6642 -60.5625
rradius 21.8626
rwrist -4.71148
rhand -10.8251 17.6057
rfingers 7.12502
rthumb 15.189 -11.8168
lclavicle -8.94531e-016 -3.81667e-014
lhumerus -37.3827 10.4512 79.4004
lradius 28.4752
lwrist -10.8244
lhand 1.41375 32.9641
lfingers 7.12502
lthumb 26.9438 61.0632
rfemur -27.3901 1.51154 19.5084
rtibia 27.6872
rfoot -0.21533 -5.14828
rtoes 23.2147
lfemur 8.48602 -6.25615 -22.8658
ltibia 33.5728
lfoot 10.8902 -4.47278
ltoes -8.87291
248
root -0.560771 18.1471 -16.1355 3.35258 2.71149 0.515657
lowerback 6.22673 -0.19987 -5.53551
upperback -0.753562 -0.502986 4.4965
thorax -4.20632 -0.0625613 7.92822
lowerneck -16.5137 -4.91921 -13.488
upperneck 26.9584 -4.88062 6.20287
head 12.144 -2.79226 3.87306
rclavicle -1.59028e-014 9.54166e-015
rhumerus -42.5827 -28.2313 -61.0102
rradius 22.3103
rwrist -5.50083
rhand -10.7802 17.2484
rfingers 7.12502
rthumb 15.2322 -12.1708
lclavicle -1.59028e-014 9.54166e-015
lhumerus -37.3126 10.7893 79.2809
lradius 27.9881
lwrist -11.0491
lhand 1.5546 32.8042
lfingers 7.12502
lthumb 27.0785 60.8824
rfemur -26.7694 1.30007 19.9108
rtibia 27.7992
rfoot -0.738971 -4.95422
rtoes 24.2513
lfemur 7.1139 -6.08432 -22.3756
ltibia 35.9999
lfoot 13.368 -4.98278
ltoes -4.05582
249
root -0.582426 18.1719 -15.958 3.35335 2.89011 0.382827
lowerback 6.25497 -0.200372 -5.45297
upperback -0.704646 -0.498868 4.48965
thorax -4.17197 -0.0654925 7.87174
lowerneck -17.0726 -5.01951 -13.5097
upperneck 27.3156 -4.98748 6.34272
head 12.4173 -2.82437 3.91752
rclavicle -2.25621e-014 -1.82882e-014
rhumerus -42.3702 -27.7105 -61.6424
rradius 22.7712
rwrist -6.34795
rhand -10.9103 16.7773
rfingers 7.12502
rthumb 15.1069 -12.6514
lclavicle -2.25621e-014 -1.82882e-014
lhumerus -37.1391 10.9407 79.2861
lradius 27.5585
lwrist -10.9514
lhand 1.51728 32.841
lfingers 7.12502
lthumb 27.0428 60.9247
rfemur -26.0739 1.33971 20.1884
rtibia 27.8379
rfoot -1.38649 -5.13784
rtoes 25.1771
lfemur 5.61342 -5.83481 -21.9265
ltibia 38.5053
lfoot 16.2145 -5.11058
ltoes 1.7398
250
root -0.606392 18.1965 -15.7823 3.38748 3.08972 0.0900467
lowerback 6.19976 -0.210583 -5.23804
upperback -0.64204 -0.492197 4.54158
thorax -4.07682 -0.0722514 7.79925
lowerneck -17.4367 -5.16459 -13.5708
upperneck 27.4792 -5.16661 6.46791
head 12.5856 -2.8923 3.9478
rclavicle 7.45443e-015 -5.40694e-014
rhumerus -42.1136 -27.827 -61.813
rradius 22.7382
rwrist -6.30016
rhand -10.7784 17.0814
rfingers 7.12502
rthumb 15.2339 -12.3377
lclavicle 7.45443e-015 -5.40694e-014
lhumerus -37.3106 10.4163 79.591
lradius 27.9609
lwrist -10.247
lhand 1.90937 33.5092
lfingers 7.12502
lthumb 27.4179 61.5341
rfemur -25.3911 1.51504 20.6284
rtibia 27.8017
rfoot -1.95075 -5.43316
rtoes 25.6782
lfemur 4.02493 -5.56657 -21.2924
ltibia 41.0278
lfoot 18.6112 -5.19601
ltoes 5.43991
251
root -0.629517 18.2202 -15.6054 3.30712 3.34292 -0.469712
lowerback 6.11713 -0.242843 -4.75147
upperback -0.578031 -0.491646 4.65836
thorax -3.96481 -0.0877255 7.63832
lowerneck -17.5175 -5.23732 -13.6318
upperneck 27.5827 -5.30962 6.67999
head 12.6696 -2.93605 4.01982
rclavicle -6.16232e-015 -4.53229e-014
rhumerus -42.0099 -27.8752 -61.957
rradius 22.7899
rwrist -6.22927
rhand -10.7169 17.259
rfingers 7.12502
rthumb 15.2932 -12.1556
lclavicle -6.16232e-015 -4.53229e-014
lhumerus -37.7353 9.6887 79.9107
lradius 28.5492
lwrist -9.61463
lhand 2.23949 33.482
lfingers 7.12502
lthumb 27.7336 61.4565
rfemur -24.5563 1.6169 21.3716
rtibia 27.6793
rfoot -2.43182 -5.65178
rtoes 25.5136
lfemur 2.55369 -5.34409 -20.3971
ltibia 43.5356
lfoot 20.2631 -5.38665
ltoes 7.59417
252
root -0.647625 18.2415 -15.4273 3.12244 3.63566 -0.950004
lowerback 6.16323 -0.299434 -4.3314
upperback -0.612804 -0.531065 4.78706
thorax -4.02248 -0.112123 7.53786
lowerneck -17.132 -5.23285 -13.7947
upperneck 27.5285 -5.37026 6.87811
head 12.5871 -2.9603 4.11775
rclavicle 1.59028e-015 -1.51076e-014
rhumerus -42.066 -26.9677 -62.4954
rradius 23.3172
rwrist -7.0718
rhand -10.9924 16.861
rfingers 7.12502
rthumb 15.0278 -12.5736
lclavicle 1.59028e-015 -1.51076e-014
lhumerus -38.1736 9.51872 80.0395
lradius 28.5957
lwrist -9.65169
lhand 2.3444 32.8272
lfingers 7.12502
lthumb 27.8339 60.7855
rfemur -23.5603 1.53121 22.0311
rtibia 27.4779
rfoot -3.08349 -5.83215
rtoes 25.6769
lfemur 1.22112 -5.19641 -19.6552
ltibia 45.9812
lfoot 21.4747 -5.35867
ltoes 11.5405
253
root -0.6652 18.2567 -15.2564 2.9816 3.90968 -1.41885
lowerback 6.25331 -0.347117 -3.89401
upperback -0.62344 -0.55763 4.91557
thorax -4.08232 -0.131311 7.42664
lowerneck -16.8168 -5.261 -13.9933
upperneck 27.4134 -5.44361 7.04129
head 12.4976 -2.9959 4.20321
rclavicle 4.00551e-014 -5.40694e-014
rhumerus -42.0161 -25.9176 -63.1482
rradius 23.9154
rwrist -8.00048
rhand -11.0847 16.7507
rfingers 7.12502
rthumb 14.9389 -12.6906
lclavicle 4.00551e-014 -5.40694e-014
lhumerus -38.2786 9.47273 80.2074
lradius 28.5429
lwrist -9.57758
lhand 2.74991 32.9368
lfingers 7.12502
lthumb 28.2216 60.8318
rfemur -22.6355 1.54 22.6638
rtibia 27.2482
rfoot -4.15804 -6.25368
rtoes 28.5006
lfemur -0.18973 -4.99251 -18.9259
ltibia 48.3556
lfoot 22.0335 -5.39262
ltoes 14.6483
